<svg width="136" height="24" viewBox="0 0 136 24" fill="none" xmlns="http://www.w3.org/2000/svg">
<path d="M17.9184 14.32C17.6594 14.571 17.5404 14.934 17.5994 15.29L18.4884 20.21C18.5634 20.627 18.3874 21.049 18.0384 21.29C17.6964 21.54 17.2414 21.57 16.8684 21.37L12.4394 19.06C12.2854 18.978 12.1144 18.934 11.9394 18.929H11.6684C11.5744 18.943 11.4824 18.973 11.3984 19.019L6.96839 21.34C6.74939 21.45 6.50139 21.489 6.25839 21.45C5.66639 21.338 5.27139 20.774 5.36839 20.179L6.25839 15.259C6.31739 14.9 6.19839 14.535 5.93939 14.28L2.32839 10.78C2.02639 10.487 1.92139 10.047 2.05939 9.65C2.19339 9.254 2.53539 8.965 2.94839 8.9L7.91839 8.179C8.29639 8.14 8.62839 7.91 8.79839 7.57L10.9884 3.08C11.0404 2.98 11.1074 2.888 11.1884 2.81L11.2784 2.74C11.3254 2.688 11.3794 2.645 11.4394 2.61L11.5484 2.57L11.7184 2.5H12.1394C12.5154 2.539 12.8464 2.764 13.0194 3.1L15.2384 7.57C15.3984 7.897 15.7094 8.124 16.0684 8.179L21.0384 8.9C21.4584 8.96 21.8094 9.25 21.9484 9.65C22.0794 10.051 21.9664 10.491 21.6584 10.78L17.9184 14.32Z" fill="#F9D658"/>
<path d="M45.9185 14.32C45.6595 14.571 45.5405 14.934 45.5995 15.29L46.4885 20.21C46.5635 20.627 46.3875 21.049 46.0385 21.29C45.6965 21.54 45.2415 21.57 44.8685 21.37L40.4395 19.06C40.2855 18.978 40.1145 18.934 39.9395 18.929H39.6685C39.5745 18.943 39.4825 18.973 39.3985 19.019L34.9685 21.34C34.7495 21.45 34.5015 21.489 34.2585 21.45C33.6665 21.338 33.2715 20.774 33.3685 20.179L34.2585 15.259C34.3175 14.9 34.1985 14.535 33.9395 14.28L30.3285 10.78C30.0265 10.487 29.9215 10.047 30.0595 9.65C30.1935 9.254 30.5355 8.965 30.9485 8.9L35.9185 8.179C36.2965 8.14 36.6285 7.91 36.7985 7.57L38.9885 3.08C39.0405 2.98 39.1075 2.888 39.1885 2.81L39.2785 2.74C39.3255 2.688 39.3795 2.645 39.4395 2.61L39.5485 2.57L39.7185 2.5H40.1395C40.5155 2.539 40.8465 2.764 41.0195 3.1L43.2385 7.57C43.3985 7.897 43.7095 8.124 44.0685 8.179L49.0385 8.9C49.4585 8.96 49.8095 9.25 49.9485 9.65C50.0795 10.051 49.9665 10.491 49.6585 10.78L45.9185 14.32Z" fill="#F9D658"/>
<path d="M73.9185 14.32C73.6595 14.571 73.5405 14.934 73.5995 15.29L74.4885 20.21C74.5635 20.627 74.3875 21.049 74.0385 21.29C73.6965 21.54 73.2415 21.57 72.8685 21.37L68.4395 19.06C68.2855 18.978 68.1145 18.934 67.9395 18.929H67.6685C67.5745 18.943 67.4825 18.973 67.3985 19.019L62.9685 21.34C62.7495 21.45 62.5015 21.489 62.2585 21.45C61.6665 21.338 61.2715 20.774 61.3685 20.179L62.2585 15.259C62.3175 14.9 62.1985 14.535 61.9395 14.28L58.3285 10.78C58.0265 10.487 57.9215 10.047 58.0595 9.65C58.1935 9.254 58.5355 8.965 58.9485 8.9L63.9185 8.179C64.2965 8.14 64.6285 7.91 64.7985 7.57L66.9885 3.08C67.0405 2.98 67.1075 2.888 67.1885 2.81L67.2785 2.74C67.3255 2.688 67.3795 2.645 67.4395 2.61L67.5485 2.57L67.7185 2.5H68.1395C68.5155 2.539 68.8465 2.764 69.0195 3.1L71.2385 7.57C71.3985 7.897 71.7095 8.124 72.0685 8.179L77.0385 8.9C77.4585 8.96 77.8095 9.25 77.9485 9.65C78.0795 10.051 77.9665 10.491 77.6585 10.78L73.9185 14.32Z" fill="#F9D658"/>
<path d="M101.919 14.32C101.66 14.571 101.541 14.934 101.6 15.29L102.489 20.21C102.564 20.627 102.388 21.049 102.039 21.29C101.697 21.54 101.242 21.57 100.869 21.37L96.4395 19.06C96.2855 18.978 96.1145 18.934 95.9395 18.929H95.6685C95.5745 18.943 95.4825 18.973 95.3985 19.019L90.9685 21.34C90.7495 21.45 90.5015 21.489 90.2585 21.45C89.6665 21.338 89.2715 20.774 89.3685 20.179L90.2585 15.259C90.3175 14.9 90.1985 14.535 89.9395 14.28L86.3285 10.78C86.0265 10.487 85.9215 10.047 86.0595 9.65C86.1935 9.254 86.5355 8.965 86.9485 8.9L91.9185 8.179C92.2965 8.14 92.6285 7.91 92.7985 7.57L94.9885 3.08C95.0405 2.98 95.1075 2.888 95.1885 2.81L95.2785 2.74C95.3255 2.688 95.3795 2.645 95.4395 2.61L95.5485 2.57L95.7185 2.5H96.1395C96.5155 2.539 96.8465 2.764 97.0195 3.1L99.2385 7.57C99.3985 7.897 99.7095 8.124 100.069 8.179L105.039 8.9C105.459 8.96 105.81 9.25 105.949 9.65C106.08 10.051 105.967 10.491 105.659 10.78L101.919 14.32Z" fill="#F9D658"/>
<path d="M129.919 14.32C129.66 14.571 129.541 14.934 129.6 15.29L130.489 20.21C130.564 20.627 130.388 21.049 130.039 21.29C129.697 21.54 129.242 21.57 128.869 21.37L124.44 19.06C124.286 18.978 124.115 18.934 123.94 18.929H123.669C123.575 18.943 123.483 18.973 123.399 19.019L118.969 21.34C118.75 21.45 118.502 21.489 118.259 21.45C117.667 21.338 117.272 20.774 117.369 20.179L118.259 15.259C118.318 14.9 118.199 14.535 117.94 14.28L114.329 10.78C114.027 10.487 113.922 10.047 114.06 9.65C114.194 9.254 114.536 8.965 114.949 8.9L119.919 8.179C120.297 8.14 120.629 7.91 120.799 7.57L122.989 3.08C123.041 2.98 123.108 2.888 123.189 2.81L123.279 2.74C123.326 2.688 123.38 2.645 123.44 2.61L123.549 2.57L123.719 2.5H124.14C124.516 2.539 124.847 2.764 125.02 3.1L127.239 7.57C127.399 7.897 127.71 8.124 128.069 8.179L133.039 8.9C133.459 8.96 133.81 9.25 133.949 9.65C134.08 10.051 133.967 10.491 133.659 10.78L129.919 14.32Z" fill="#F9D658"/>
</svg>
